<svg width="80" height="80" viewBox="0 0 80 80" fill="none" xmlns="http://www.w3.org/2000/svg">
<g filter="url(#filter0_d_622_738)">
<rect x="16" y="12" width="48" height="48" rx="24" fill="white"/>
<path d="M45.8255 21.5627C46.1362 21.1061 46.018 20.484 45.5614 20.1733C45.3892 20.0562 45.1934 20 44.9997 20C44.6797 19.9998 44.3651 20.153 44.1715 20.4375L34.7302 34.3124C34.7202 34.3271 34.7103 34.3419 34.7005 34.3568L34.348 34.875C33.886 35.5539 33.886 36.4463 34.348 37.1252L34.7006 37.6434C34.7103 37.6583 34.7202 37.6731 34.7302 37.6878L44.1715 51.5627C44.3651 51.8472 44.6797 52.0004 44.9997 52.0002C45.1934 52.0002 45.3892 51.944 45.5614 51.8268C46.018 51.5161 46.1362 50.8941 45.8255 50.4375L36.3667 36.5369C36.1583 36.2095 36.1584 35.7907 36.3668 35.4633L45.8255 21.5627Z" fill="#80858E"/>
</g>
<defs>
<filter id="filter0_d_622_738" x="0" y="0" width="80" height="80" filterUnits="userSpaceOnUse" color-interpolation-filters="sRGB">
<feFlood flood-opacity="0" result="BackgroundImageFix"/>
<feColorMatrix in="SourceAlpha" type="matrix" values="0 0 0 0 0 0 0 0 0 0 0 0 0 0 0 0 0 0 127 0" result="hardAlpha"/>
<feOffset dy="4"/>
<feGaussianBlur stdDeviation="8"/>
<feColorMatrix type="matrix" values="0 0 0 0 0.0470588 0 0 0 0 0.0627451 0 0 0 0 0.0941176 0 0 0 0.12 0"/>
<feBlend mode="normal" in2="BackgroundImageFix" result="effect1_dropShadow_622_738"/>
<feBlend mode="normal" in="SourceGraphic" in2="effect1_dropShadow_622_738" result="shape"/>
</filter>
</defs>
</svg>
