<svg width="16" height="16" viewBox="0 0 16 16" fill="none" xmlns="http://www.w3.org/2000/svg">
<path d="M8.00031 8.09822C6.88307 8.09822 5.92927 7.7024 5.13886 6.91072C4.34848 6.11905 3.9533 5.16668 3.9533 4.05357C3.9533 2.93453 4.34849 1.97918 5.13886 1.1875C5.92927 0.395832 6.88308 0 8.00031 0C9.11755 0 10.0714 0.395824 10.8618 1.1875C11.6521 1.97918 12.0473 2.93453 12.0473 4.05357C12.0473 5.16668 11.6521 6.11905 10.8618 6.91072C10.0714 7.70239 9.11754 8.09822 8.00031 8.09822ZM8.00031 2.05357C7.45359 2.05357 6.98559 2.24851 6.59634 2.63841C6.20708 3.02828 6.01245 3.50001 6.01245 4.05357C6.01245 4.6012 6.20708 5.06995 6.59634 5.45982C6.98559 5.84971 7.45359 6.04463 8.00031 6.04463C8.54704 6.04463 9.01503 5.84971 9.40429 5.45982C9.79354 5.06994 9.98818 4.6012 9.98818 4.05357C9.98818 3.5 9.79354 3.02827 9.40429 2.63841C9.01503 2.24851 8.54704 2.05357 8.00031 2.05357ZM12.6624 8.58929C12.7397 8.75001 12.7842 8.89732 12.7961 9.03126C12.808 9.16519 12.7946 9.28572 12.756 9.39286C12.7174 9.50001 12.6386 9.61458 12.5198 9.73661C12.4009 9.85866 12.2746 9.96876 12.1409 10.067C12.0072 10.1652 11.8245 10.2887 11.5927 10.4375C10.9093 10.872 9.97331 11.1518 8.78476 11.2768L9.4355 11.9196L11.8156 14.3036C11.9938 14.4881 12.083 14.7083 12.083 14.9643C12.083 15.2203 11.9938 15.4375 11.8156 15.6161L11.7086 15.7322C11.5244 15.9107 11.3045 16 11.049 16C10.7934 16 10.5735 15.9107 10.3893 15.7322C9.99114 15.3274 9.19778 14.5298 8.00923 13.3393L5.62915 15.7322C5.44492 15.9107 5.22505 16 4.96951 16C4.71397 16 4.49707 15.9107 4.31878 15.7322L4.21182 15.6161C4.02759 15.4375 3.93547 15.2203 3.93547 14.9643C3.93547 14.7083 4.02759 14.4881 4.21182 14.3036L7.23369 11.2768C6.02731 11.1518 5.0854 10.872 4.4079 10.4375C4.17615 10.2887 3.9934 10.1652 3.85969 10.067C3.726 9.96876 3.5997 9.85865 3.48086 9.73661C3.36198 9.61458 3.28325 9.50001 3.24462 9.39286C3.206 9.28573 3.19263 9.16519 3.20451 9.03126C3.2164 8.89732 3.26096 8.75001 3.33823 8.58929C3.39765 8.47025 3.48085 8.36607 3.58781 8.27678C3.69479 8.1875 3.81957 8.12202 3.9622 8.08038C4.10483 8.0387 4.27123 8.04463 4.46139 8.09822C4.65155 8.15179 4.8447 8.25596 5.04081 8.41073C5.07052 8.43453 5.1151 8.46727 5.17452 8.50894C5.23394 8.55059 5.36173 8.62352 5.55782 8.7277C5.75394 8.83185 5.95897 8.92262 6.17291 9.00001C6.38686 9.0774 6.66022 9.14881 6.99301 9.21429C7.3258 9.27977 7.66156 9.3125 8.00031 9.3125C8.5411 9.3125 9.05812 9.2366 9.55135 9.08482C10.0446 8.93303 10.4012 8.78274 10.6211 8.63394L10.9598 8.41072C11.1559 8.25596 11.3491 8.15178 11.5392 8.09822C11.7294 8.04462 11.8958 8.0387 12.0384 8.08037C12.181 8.12201 12.3058 8.1875 12.4128 8.27678C12.5198 8.36606 12.603 8.47023 12.6624 8.58928L12.6624 8.58929Z" fill="white"/>
</svg>
