<svg width="32" height="32" viewBox="0 0 32 32" fill="none" xmlns="http://www.w3.org/2000/svg">
<path d="M2.70711 1.29289C2.31658 0.902369 1.68342 0.902369 1.29289 1.29289C0.902369 1.68342 0.902369 2.31658 1.29289 2.70711L14.5858 16L1.29289 29.2929C0.902369 29.6834 0.902369 30.3166 1.29289 30.7071C1.68342 31.0976 2.31658 31.0976 2.70711 30.7071L16 17.4142L29.2929 30.7071C29.6834 31.0976 30.3166 31.0976 30.7071 30.7071C31.0976 30.3166 31.0976 29.6834 30.7071 29.2929L17.4142 16L30.7071 2.70711C31.0976 2.31658 31.0976 1.68342 30.7071 1.29289C30.3166 0.902369 29.6834 0.902369 29.2929 1.29289L16 14.5858L2.70711 1.29289Z" fill="#EAECF0"/>
</svg>
