<svg width="20" height="18" viewBox="0 0 20 18" fill="none" xmlns="http://www.w3.org/2000/svg">
<path fill-rule="evenodd" clip-rule="evenodd" d="M11 1C11 0.447715 10.5523 0 10 0C9.44771 0 9 0.447715 9 1V4.10002C6.71776 4.56329 5 6.58104 5 9C5 11.419 6.71776 13.4367 9 13.9V17C9 17.5523 9.44771 18 10 18C10.5523 18 11 17.5523 11 17V1ZM9 11.8293V6.17071C7.83481 6.58254 7 7.69378 7 9C7 10.3062 7.83481 11.4175 9 11.8293ZM13.3669 6.04345C13.5352 5.91049 13.7156 5.79242 13.906 5.6911C13.645 6.29716 13.5002 6.96523 13.5002 7.66671C13.5002 9.76353 14.7909 11.5589 16.6212 12.3016C16.2945 12.3994 15.9482 12.4519 15.5893 12.4519C15.1505 12.4519 14.7322 12.3736 14.3461 12.2311C13.9903 12.0997 13.6604 11.9132 13.3669 11.6814C12.9335 11.3391 12.3046 11.413 11.9623 11.8464C11.62 12.2798 11.6939 12.9087 12.1273 13.251C12.5833 13.611 13.0973 13.902 13.6535 14.1073C14.258 14.3305 14.9106 14.4519 15.5893 14.4519C17.0878 14.4519 18.4503 13.8609 19.4532 12.9014C19.9287 12.4464 19.9244 11.8127 19.6916 11.3784C19.4738 10.972 19.0324 10.6667 18.5002 10.6667C16.8434 10.6667 15.5002 9.32357 15.5002 7.66671C15.5002 6.81169 15.8566 6.04155 16.4317 5.49385C16.8114 5.13223 16.9143 4.61449 16.7891 4.17957C16.6558 3.71678 16.2276 3.27295 15.5893 3.27295C14.6746 3.27295 13.8084 3.49344 13.0439 3.88506C12.7184 4.05181 12.4116 4.24941 12.1273 4.47389C11.6939 4.81618 11.62 5.44502 11.9623 5.87845C12.3046 6.31187 12.9335 6.38574 13.3669 6.04345ZM0 9C-1.19209e-07 8.44772 0.447715 8 1 8H3C3.55228 8 4 8.44772 4 9C4 9.55228 3.55228 10 3 10H1C0.447715 10 0 9.55228 0 9ZM4.37425 1.62615C3.98373 1.23562 3.35056 1.23562 2.96004 1.62615C2.56951 2.01667 2.56951 2.64983 2.96004 3.04036L4.37425 4.45457C4.76477 4.8451 5.39794 4.8451 5.78846 4.45457C6.17899 4.06405 6.17899 3.43088 5.78846 3.04036L4.37425 1.62615ZM3.02727 16.3067C2.63674 15.9162 2.63674 15.2831 3.02727 14.8925L4.44148 13.4783C4.83201 13.0878 5.46517 13.0878 5.8557 13.4783C6.24622 13.8688 6.24622 14.502 5.8557 14.8925L4.44148 16.3067C4.05096 16.6973 3.41779 16.6973 3.02727 16.3067Z" fill="#4480F3"/>
</svg>
