<svg width="56" height="56" viewBox="0 0 56 56" fill="none" xmlns="http://www.w3.org/2000/svg">
<g clip-path="url(#clip0_626_661)">
<path d="M2.56066 0.43934C1.97487 -0.146447 1.02513 -0.146447 0.43934 0.43934C-0.146447 1.02513 -0.146447 1.97487 0.43934 2.56066L25.8787 28L0.43934 53.4393C-0.146447 54.0251 -0.146447 54.9749 0.43934 55.5607C1.02513 56.1464 1.97487 56.1464 2.56066 55.5607L28 30.1213L53.4393 55.5607C54.0251 56.1464 54.9749 56.1464 55.5607 55.5607C56.1464 54.9749 56.1464 54.0251 55.5607 53.4393L30.1213 28L55.5607 2.56066C56.1464 1.97487 56.1464 1.02513 55.5607 0.43934C54.9749 -0.146445 54.0251 -0.146445 53.4393 0.43934L28 25.8787L2.56066 0.43934Z" fill="#E35454"/>
</g>
<defs>
<clipPath id="clip0_626_661">
<rect width="56" height="56" fill="white"/>
</clipPath>
</defs>
</svg>
