<svg width="20" height="20" viewBox="0 0 20 20" fill="none" xmlns="http://www.w3.org/2000/svg">
<path d="M19.7071 1.70711C20.0976 1.31658 20.0976 0.683417 19.7071 0.292893C19.3166 -0.0976311 18.6834 -0.0976311 18.2929 0.292893L14.5 4.08579V2.5C14.5 1.94772 14.0523 1.5 13.5 1.5C12.9477 1.5 12.5 1.94772 12.5 2.5V6.5C12.5 7.05228 12.9477 7.5 13.5 7.5H17.5C18.0523 7.5 18.5 7.05228 18.5 6.5C18.5 5.94772 18.0523 5.5 17.5 5.5H15.9142L19.7071 1.70711Z" fill="#4480F3"/>
<path d="M2.5 12.5C1.94772 12.5 1.5 12.9477 1.5 13.5C1.5 14.0523 1.94772 14.5 2.5 14.5H4.08579L0.292893 18.2929C-0.0976311 18.6834 -0.0976311 19.3166 0.292893 19.7071C0.683417 20.0976 1.31658 20.0976 1.70711 19.7071L5.5 15.9142V17.5C5.5 18.0523 5.94772 18.5 6.5 18.5C7.05228 18.5 7.5 18.0523 7.5 17.5V13.5C7.5 12.9477 7.05228 12.5 6.5 12.5H2.5Z" fill="#4480F3"/>
<path d="M0.292893 0.292893C0.683418 -0.097631 1.31658 -0.097631 1.70711 0.292893L5.5 4.08579V2.5C5.5 1.94772 5.94772 1.5 6.5 1.5C7.05229 1.5 7.5 1.94772 7.5 2.5V6.5C7.5 7.05229 7.05229 7.5 6.5 7.5H2.5C1.94772 7.5 1.5 7.05229 1.5 6.5C1.5 5.94772 1.94772 5.5 2.5 5.5H4.08579L0.292893 1.70711C-0.097631 1.31658 -0.097631 0.683417 0.292893 0.292893Z" fill="#4480F3"/>
<path d="M17.5 12.5H13.5C12.9477 12.5 12.5 12.9477 12.5 13.5V17.5C12.5 18.0523 12.9477 18.5 13.5 18.5C14.0523 18.5 14.5 18.0523 14.5 17.5V15.9142L18.2929 19.7071C18.6834 20.0976 19.3166 20.0976 19.7071 19.7071C20.0976 19.3166 20.0976 18.6834 19.7071 18.2929L15.9142 14.5H17.5C18.0523 14.5 18.5 14.0523 18.5 13.5C18.5 12.9477 18.0523 12.5 17.5 12.5Z" fill="#4480F3"/>
</svg>
