<svg width="32" height="32" viewBox="0 0 32 32" fill="none" xmlns="http://www.w3.org/2000/svg">
<rect width="32" height="32" rx="16" fill="white"/>
<path d="M18.8378 10.0416C19.1368 9.57729 19.0028 8.95846 18.5385 8.65941C18.3708 8.55135 18.1828 8.49983 17.9971 8.5C17.6688 8.5003 17.3473 8.66209 17.1563 8.95864L13.6673 14.3757C13.6656 14.3783 13.6639 14.3809 13.6623 14.3835L13.3186 14.9172C12.8938 15.5767 12.8938 16.4236 13.3186 17.0831L13.6623 17.6168C13.664 17.6194 13.6656 17.622 13.6673 17.6246L17.1563 23.0416C17.2685 23.2157 17.4256 23.3434 17.6027 23.4192C17.8524 23.5261 18.1417 23.5298 18.4007 23.4152C18.4478 23.3944 18.4939 23.3696 18.5385 23.3408C19.0029 23.0418 19.1368 22.4229 18.8378 21.9586L15.3487 16.5416C15.3478 16.5401 15.3468 16.5386 15.3458 16.5371C15.1373 16.2095 15.1373 15.7908 15.3458 15.4632L18.8378 10.0416Z" fill="#80858E"/>
</svg>
