<svg width="48" height="48" viewBox="0 0 48 48" fill="none" xmlns="http://www.w3.org/2000/svg">
<rect width="48" height="48" rx="24" fill="white"/>
<path d="M29.8255 9.56267C30.1362 9.10607 30.018 8.48405 29.5614 8.17335C29.3892 8.05617 29.1934 8.00001 28.9997 8C28.6797 7.9998 28.3651 8.15296 28.1715 8.43753L18.7302 22.3124C18.7202 22.3271 18.7103 22.3419 18.7005 22.3568L18.348 22.875C17.886 23.5539 17.886 24.4463 18.348 25.1252L18.7006 25.6434C18.7103 25.6583 18.7202 25.6731 18.7302 25.6878L28.1715 39.5627C28.3651 39.8472 28.6797 40.0004 28.9997 40.0002C29.1934 40.0002 29.3892 39.944 29.5614 39.8268C30.018 39.5161 30.1362 38.8941 29.8255 38.4375L20.3667 24.5369C20.1583 24.2095 20.1584 23.7907 20.3668 23.4633L29.8255 9.56267Z" fill="#80858E"/>
</svg>
