<svg width="166" height="32" viewBox="0 0 166 32" fill="none" xmlns="http://www.w3.org/2000/svg">
<rect width="14.412" height="14.412" rx="1.60294" transform="matrix(0.707403 0.70681 -0.707403 0.70681 10.1951 0)" fill="#FB9898"/>
<rect width="14.412" height="14.412" rx="1.60294" transform="matrix(0.707403 0.70681 -0.707403 0.70681 21.8319 11.627)" fill="#7DAFFC"/>
<rect width="14.412" height="14.412" rx="1.60294" transform="matrix(0.707403 0.70681 -0.707403 0.70681 21.7296 0)" fill="#F5AB61"/>
<path fill-rule="evenodd" clip-rule="evenodd" d="M26.1574 15.9489L22.8634 19.2402C22.2372 19.8659 21.2218 19.8659 20.5956 19.2402L17.404 16.0513L20.698 12.76C21.3243 12.1343 22.3396 12.1343 22.9659 12.76L26.1574 15.9489Z" fill="#4480F3"/>
<path fill-rule="evenodd" clip-rule="evenodd" d="M15.9623 5.76254L19.2562 9.05364C19.8824 9.67937 19.8824 10.6939 19.2562 11.3196L15.9623 14.6107L12.6685 11.3196C12.0422 10.6939 12.0422 9.67937 12.6685 9.05364L15.9623 5.76254Z" fill="#E35454"/>
<path d="M49.2462 11.3602H42.5331V2.3999H44.8392V9.46575H47.9138V2.3999H50.2198V9.46575H51.2447V13.0243H49.2462V11.3602Z" fill="white"/>
<path d="M52.2106 4.57598H54.1323V8.67212L57.0148 4.57598H58.7443V11.3602H56.8226V7.26407L53.9401 11.3602H52.2106V4.57598Z" fill="white"/>
<path d="M63.3352 11.5266C62.1822 11.5266 61.2982 11.2322 60.6833 10.6434C60.0769 10.046 59.7737 9.1756 59.7737 8.0321V7.77609C59.7737 6.68378 60.0769 5.85176 60.6833 5.28C61.2982 4.69972 62.1822 4.40957 63.3352 4.40957V2.3999H65.3081V4.40957C66.4526 4.40957 67.3323 4.69972 67.9472 5.28C68.5621 5.85176 68.8696 6.68378 68.8696 7.77609V8.0321C68.8696 9.1756 68.5621 10.046 67.9472 10.6434C67.3323 11.2322 66.4526 11.5266 65.3081 11.5266V13.9203H63.3352V11.5266ZM66.8711 7.77609C66.8711 7.20434 66.7387 6.77339 66.4739 6.48324C66.2092 6.1931 65.7949 6.04803 65.2312 6.04803V9.88816C65.7949 9.88816 66.2092 9.73029 66.4739 9.41455C66.7387 9.09027 66.8711 8.62945 66.8711 8.0321V7.77609ZM61.7722 8.0321C61.7722 8.63799 61.9046 9.0988 62.1694 9.41455C62.4341 9.73029 62.8484 9.88816 63.4121 9.88816V6.04803C62.8313 6.04803 62.4128 6.19737 62.1566 6.49604C61.9003 6.79472 61.7722 7.2214 61.7722 7.77609V8.0321Z" fill="white"/>
<path d="M69.8885 4.57598H71.7077V5.49761C71.7931 5.36107 71.8999 5.2288 72.028 5.1008C72.1646 4.96426 72.3226 4.84479 72.502 4.74238C72.6813 4.63998 72.882 4.55891 73.1041 4.49918C73.3262 4.43944 73.5653 4.40957 73.8215 4.40957C74.7781 4.40957 75.5041 4.69118 75.9994 5.2544C76.4948 5.81762 76.7425 6.65818 76.7425 7.77609V8.0321C76.7425 8.61238 76.6742 9.12013 76.5375 9.55535C76.4008 9.99056 76.2044 10.3532 75.9482 10.6434C75.692 10.9335 75.3845 11.1554 75.0258 11.309C74.6671 11.4541 74.2657 11.5266 73.8215 11.5266C73.4372 11.5266 73.0699 11.4413 72.7198 11.2706C72.3781 11.0914 72.092 10.8354 71.8614 10.5026V13.9203H69.8885V4.57598ZM73.3475 9.90096C73.7404 9.90096 74.0649 9.74309 74.3212 9.42735C74.5859 9.1116 74.7183 8.64652 74.7183 8.0321V7.77609C74.7183 7.18727 74.5902 6.75205 74.334 6.47044C74.0863 6.1803 73.7575 6.03523 73.3475 6.03523C72.929 6.03523 72.5746 6.1675 72.2842 6.43204C72.0023 6.68805 71.8614 7.07206 71.8614 7.58408V8.2241C71.8614 8.76172 72.0023 9.1756 72.2842 9.46575C72.5746 9.75589 72.929 9.90096 73.3475 9.90096Z" fill="white"/>
<path d="M80.9732 11.5266C80.4949 11.5266 80.0465 11.4583 79.628 11.3218C79.2095 11.1767 78.8422 10.9591 78.5262 10.669C78.2102 10.3788 77.9625 10.0162 77.7832 9.58095C77.6038 9.1372 77.5142 8.62092 77.5142 8.0321V7.77609C77.5142 7.2214 77.6038 6.73499 77.7832 6.31684C77.9625 5.89869 78.2102 5.54881 78.5262 5.2672C78.8422 4.98559 79.2095 4.77225 79.628 4.62718C80.0465 4.48211 80.4949 4.40957 80.9732 4.40957C81.4515 4.40957 81.8998 4.48211 82.3183 4.62718C82.7368 4.77225 83.1041 4.98559 83.4201 5.2672C83.7361 5.54881 83.9838 5.89869 84.1632 6.31684C84.3425 6.73499 84.4322 7.2214 84.4322 7.77609V8.0321C84.4322 8.61238 84.3425 9.1244 84.1632 9.56815C83.9838 10.0034 83.7361 10.366 83.4201 10.6562C83.1041 10.9463 82.7368 11.1639 82.3183 11.309C81.8998 11.4541 81.4515 11.5266 80.9732 11.5266ZM80.9732 9.88816C81.4344 9.88816 81.7888 9.72176 82.0365 9.38894C82.2842 9.05613 82.408 8.60385 82.408 8.0321V7.77609C82.408 7.26407 82.2842 6.85019 82.0365 6.53445C81.7888 6.21017 81.4344 6.04803 80.9732 6.04803C80.512 6.04803 80.1575 6.21017 79.9098 6.53445C79.6622 6.85019 79.5383 7.26407 79.5383 7.77609V8.0321C79.5383 8.62092 79.6622 9.07747 79.9098 9.40174C80.1575 9.72602 80.512 9.88816 80.9732 9.88816Z" fill="white"/>
<path d="M85.4521 4.57598H89.0905C89.5346 4.57598 89.9146 4.62291 90.2306 4.71678C90.5552 4.80212 90.8157 4.92586 91.0121 5.088C91.2171 5.25013 91.3666 5.44214 91.4605 5.66401C91.5545 5.87736 91.6014 6.11203 91.6014 6.36804C91.6014 6.69232 91.5075 6.99526 91.3196 7.27687C91.1317 7.54995 90.8627 7.73342 90.5125 7.82729C90.931 7.92969 91.2598 8.12597 91.499 8.41611C91.7381 8.70625 91.8577 9.04333 91.8577 9.42735C91.8577 10.0162 91.6484 10.4855 91.2299 10.8354C90.8114 11.1853 90.1837 11.3602 89.3467 11.3602H85.4521V4.57598ZM88.8598 9.87536C89.5431 9.87536 89.8847 9.66629 89.8847 9.24814C89.8847 8.82146 89.5431 8.60812 88.8598 8.60812H87.425V9.87536H88.8598ZM88.7445 7.22567C89.0862 7.22567 89.3168 7.17447 89.4364 7.07206C89.5645 6.96113 89.6285 6.81606 89.6285 6.63685C89.6285 6.44911 89.5645 6.3083 89.4364 6.21443C89.3082 6.11203 89.0776 6.06083 88.7445 6.06083H87.425V7.22567H88.7445Z" fill="white"/>
<path d="M96.0863 11.5266C95.6081 11.5266 95.1597 11.4583 94.7412 11.3218C94.3227 11.1767 93.9554 10.9591 93.6394 10.669C93.3234 10.3788 93.0757 10.0162 92.8964 9.58095C92.717 9.1372 92.6273 8.62092 92.6273 8.0321V7.77609C92.6273 7.2214 92.717 6.73499 92.8964 6.31684C93.0757 5.89869 93.3234 5.54881 93.6394 5.2672C93.9554 4.98559 94.3227 4.77225 94.7412 4.62718C95.1597 4.48211 95.6081 4.40957 96.0863 4.40957C96.5646 4.40957 97.013 4.48211 97.4315 4.62718C97.85 4.77225 98.2173 4.98559 98.5333 5.2672C98.8493 5.54881 99.097 5.89869 99.2763 6.31684C99.4557 6.73499 99.5454 7.2214 99.5454 7.77609V8.0321C99.5454 8.61238 99.4557 9.1244 99.2763 9.56815C99.097 10.0034 98.8493 10.366 98.5333 10.6562C98.2173 10.9463 97.85 11.1639 97.4315 11.309C97.013 11.4541 96.5646 11.5266 96.0863 11.5266ZM96.0863 9.88816C96.5476 9.88816 96.902 9.72176 97.1497 9.38894C97.3974 9.05613 97.5212 8.60385 97.5212 8.0321V7.77609C97.5212 7.26407 97.3974 6.85019 97.1497 6.53445C96.902 6.21017 96.5476 6.04803 96.0863 6.04803C95.6251 6.04803 95.2707 6.21017 95.023 6.53445C94.7753 6.85019 94.6515 7.26407 94.6515 7.77609V8.0321C94.6515 8.62092 94.7753 9.07747 95.023 9.40174C95.2707 9.72602 95.6251 9.88816 96.0863 9.88816Z" fill="white"/>
<path d="M103.832 11.5266C103.337 11.5266 102.871 11.4583 102.436 11.3218C102.009 11.1767 101.637 10.9591 101.321 10.669C101.005 10.3788 100.757 10.0162 100.578 9.58095C100.399 9.1372 100.309 8.62092 100.309 8.0321V7.77609C100.309 7.21287 100.394 6.72219 100.565 6.30404C100.745 5.88589 100.984 5.53601 101.283 5.2544C101.59 4.97279 101.949 4.76372 102.359 4.62718C102.777 4.48211 103.226 4.40957 103.704 4.40957C104.823 4.40957 105.668 4.69972 106.241 5.28C106.813 5.85176 107.099 6.68378 107.099 7.77609V8.48011H102.333C102.342 8.74466 102.389 8.9708 102.474 9.15854C102.56 9.33774 102.671 9.48708 102.807 9.60655C102.944 9.72602 103.098 9.81563 103.268 9.87536C103.448 9.92656 103.636 9.95216 103.832 9.95216C104.208 9.95216 104.503 9.89669 104.716 9.78576C104.938 9.66629 105.083 9.50841 105.152 9.31214H106.971C106.834 10.0546 106.497 10.6093 105.959 10.9762C105.421 11.3431 104.712 11.5266 103.832 11.5266ZM103.768 5.97123C103.589 5.97123 103.414 5.99256 103.243 6.03523C103.081 6.0779 102.931 6.15043 102.794 6.25284C102.666 6.34671 102.56 6.47044 102.474 6.62405C102.397 6.77765 102.355 6.96539 102.346 7.18727H105.164C105.164 6.94833 105.126 6.75205 105.049 6.59845C104.972 6.44484 104.87 6.3211 104.742 6.22723C104.622 6.13336 104.477 6.06936 104.306 6.03523C104.135 5.99256 103.956 5.97123 103.768 5.97123Z" fill="white"/>
<path d="M42.2769 20.5765H44.0961V21.4982C44.1815 21.3616 44.2883 21.2294 44.4164 21.1013C44.553 20.9648 44.711 20.8453 44.8904 20.7429C45.0698 20.6405 45.2705 20.5595 45.4925 20.4997C45.7146 20.44 45.9537 20.4101 46.2099 20.4101C47.1665 20.4101 47.8925 20.6917 48.3878 21.255C48.8832 21.8182 49.1309 22.6587 49.1309 23.7766V24.0326C49.1309 24.6129 49.0626 25.1207 48.9259 25.5559C48.7893 25.9911 48.5928 26.3538 48.3366 26.6439C48.0804 26.9341 47.7729 27.156 47.4142 27.3096C47.0555 27.4546 46.6541 27.5272 46.2099 27.5272C45.8256 27.5272 45.4584 27.4418 45.1082 27.2712C44.7666 27.092 44.4804 26.8359 44.2498 26.5031V29.9209H42.2769V20.5765ZM45.7359 25.9015C46.1288 25.9015 46.4534 25.7436 46.7096 25.4279C46.9743 25.1122 47.1067 24.6471 47.1067 24.0326V23.7766C47.1067 23.1878 46.9786 22.7526 46.7224 22.471C46.4747 22.1809 46.1459 22.0358 45.7359 22.0358C45.3174 22.0358 44.963 22.1681 44.6726 22.4326C44.3908 22.6886 44.2498 23.0726 44.2498 23.5846V24.2247C44.2498 24.7623 44.3908 25.1762 44.6726 25.4663C44.963 25.7564 45.3174 25.9015 45.7359 25.9015Z" fill="white"/>
<path d="M53.4256 27.5272C52.9303 27.5272 52.4648 27.4589 52.0292 27.3224C51.6022 27.1773 51.2307 26.9597 50.9147 26.6695C50.5986 26.3794 50.351 26.0167 50.1716 25.5815C49.9922 25.1378 49.9026 24.6215 49.9026 24.0326V23.7766C49.9026 23.2134 49.988 22.7227 50.1588 22.3046C50.3381 21.8864 50.5773 21.5366 50.8762 21.255C51.1837 20.9733 51.5424 20.7643 51.9524 20.6277C52.3709 20.4827 52.8192 20.4101 53.2975 20.4101C54.4164 20.4101 55.2619 20.7003 55.8341 21.2806C56.4064 21.8523 56.6925 22.6843 56.6925 23.7766V24.4807H51.9267C51.9353 24.7452 51.9822 24.9713 52.0677 25.1591C52.1531 25.3383 52.2641 25.4876 52.4007 25.6071C52.5374 25.7266 52.6911 25.8162 52.8619 25.8759C53.0413 25.9271 53.2292 25.9527 53.4256 25.9527C53.8014 25.9527 54.0961 25.8972 54.3096 25.7863C54.5317 25.6668 54.6769 25.509 54.7452 25.3127H56.5644C56.4277 26.0551 56.0904 26.6098 55.5523 26.9768C55.0142 27.3437 54.3053 27.5272 53.4256 27.5272ZM53.3616 21.9718C53.1822 21.9718 53.0071 21.9931 52.8363 22.0358C52.6741 22.0784 52.5246 22.151 52.3879 22.2534C52.2598 22.3473 52.1531 22.471 52.0677 22.6246C51.9908 22.7782 51.9481 22.9659 51.9395 23.1878H54.758C54.758 22.9489 54.7196 22.7526 54.6427 22.599C54.5658 22.4454 54.4633 22.3217 54.3352 22.2278C54.2157 22.1339 54.0705 22.0699 53.8997 22.0358C53.7288 21.9931 53.5495 21.9718 53.3616 21.9718Z" fill="white"/>
<path d="M60.9182 27.5272C60.4143 27.5272 59.9488 27.4546 59.5218 27.3096C59.1033 27.1645 58.7403 26.9469 58.4328 26.6567C58.1253 26.3666 57.8862 26.0039 57.7154 25.5687C57.5446 25.1335 57.4592 24.6215 57.4592 24.0326V23.7766C57.4592 23.239 57.5488 22.7611 57.7282 22.343C57.9161 21.9248 58.1638 21.575 58.4712 21.2934C58.7873 21.0032 59.1545 20.7856 59.573 20.6405C59.9915 20.4869 60.4399 20.4101 60.9182 20.4101C61.4306 20.4101 61.879 20.4784 62.2633 20.6149C62.6562 20.7515 62.985 20.9392 63.2498 21.1782C63.5146 21.4086 63.7196 21.6816 63.8647 21.9974C64.0099 22.3131 64.0953 22.6502 64.121 23.0086H62.0968C62.0285 22.7014 61.9004 22.4667 61.7125 22.3046C61.5331 22.1339 61.2683 22.0486 60.9182 22.0486C60.4997 22.0486 60.1538 22.1937 59.8805 22.4838C59.6157 22.7654 59.4833 23.1964 59.4833 23.7766V24.0326C59.4833 24.6641 59.6114 25.1292 59.8677 25.4279C60.1324 25.7266 60.4826 25.8759 60.9182 25.8759C61.2171 25.8759 61.4691 25.7991 61.674 25.6455C61.8876 25.4834 62.0285 25.2444 62.0968 24.9287H64.121C64.0953 25.3298 64.0014 25.6924 63.8391 26.0167C63.6768 26.3325 63.4548 26.6013 63.1729 26.8231C62.8996 27.045 62.5708 27.22 62.1865 27.348C61.8107 27.4674 61.3879 27.5272 60.9182 27.5272Z" fill="white"/>
<path d="M66.2168 30.0873C66.0887 30.0873 65.9606 30.0745 65.8325 30.0489V28.4104C65.9606 28.436 66.0887 28.4488 66.2168 28.4488C66.4645 28.4488 66.6566 28.3635 66.7933 28.1928C66.93 28.0307 67.0751 27.749 67.2289 27.348L64.3592 20.5765H66.5371L68.2282 25.0951L69.8295 20.5765H71.7897L69.189 27.3608C69.0011 27.8386 68.8217 28.2483 68.6509 28.5896C68.4801 28.9395 68.2837 29.2254 68.0616 29.4472C67.8481 29.6691 67.5919 29.8312 67.2929 29.9337C67.0026 30.0361 66.6438 30.0873 66.2168 30.0873Z" fill="white"/>
<path d="M72.5533 20.5765H74.3725V21.4982C74.4579 21.3616 74.5647 21.2294 74.6928 21.1013C74.8294 20.9648 74.9874 20.8453 75.1668 20.7429C75.3462 20.6405 75.5469 20.5595 75.7689 20.4997C75.991 20.44 76.2301 20.4101 76.4864 20.4101C77.4429 20.4101 78.1689 20.6917 78.6643 21.255C79.1596 21.8182 79.4073 22.6587 79.4073 23.7766V24.0326C79.4073 24.6129 79.339 25.1207 79.2023 25.5559C79.0657 25.9911 78.8692 26.3538 78.613 26.6439C78.3568 26.9341 78.0493 27.156 77.6906 27.3096C77.3319 27.4546 76.9305 27.5272 76.4864 27.5272C76.102 27.5272 75.7348 27.4418 75.3846 27.2712C75.043 27.092 74.7568 26.8359 74.5262 26.5031V29.9209H72.5533V20.5765ZM76.0123 25.9015C76.4052 25.9015 76.7298 25.7436 76.986 25.4279C77.2508 25.1122 77.3831 24.6471 77.3831 24.0326V23.7766C77.3831 23.1878 77.255 22.7526 76.9988 22.471C76.7511 22.1809 76.4223 22.0358 76.0123 22.0358C75.5938 22.0358 75.2394 22.1681 74.949 22.4326C74.6672 22.6886 74.5262 23.0726 74.5262 23.5846V24.2247C74.5262 24.7623 74.6672 25.1762 74.949 25.4663C75.2394 25.7564 75.5938 25.9015 76.0123 25.9015Z" fill="white"/>
<path d="M83.638 27.5272C83.1341 27.5272 82.6686 27.4546 82.2416 27.3096C81.8231 27.1645 81.4601 26.9469 81.1526 26.6567C80.8452 26.3666 80.606 26.0039 80.4352 25.5687C80.2644 25.1335 80.179 24.6215 80.179 24.0326V23.7766C80.179 23.239 80.2687 22.7611 80.448 22.343C80.6359 21.9248 80.8836 21.575 81.1911 21.2934C81.5071 21.0032 81.8743 20.7856 82.2928 20.6405C82.7113 20.4869 83.1597 20.4101 83.638 20.4101C84.1504 20.4101 84.5988 20.4784 84.9832 20.6149C85.376 20.7515 85.7049 20.9392 85.9696 21.1782C86.2344 21.4086 86.4394 21.6816 86.5846 21.9974C86.7298 22.3131 86.8152 22.6502 86.8408 23.0086H84.8166C84.7483 22.7014 84.6202 22.4667 84.4323 22.3046C84.2529 22.1339 83.9882 22.0486 83.638 22.0486C83.2195 22.0486 82.8736 22.1937 82.6003 22.4838C82.3355 22.7654 82.2031 23.1964 82.2031 23.7766V24.0326C82.2031 24.6641 82.3313 25.1292 82.5875 25.4279C82.8522 25.7266 83.2024 25.8759 83.638 25.8759C83.9369 25.8759 84.1889 25.7991 84.3939 25.6455C84.6074 25.4834 84.7483 25.2444 84.8166 24.9287H86.8408C86.8152 25.3298 86.7212 25.6924 86.5589 26.0167C86.3967 26.3325 86.1746 26.6013 85.8928 26.8231C85.6195 27.045 85.2906 27.22 84.9063 27.348C84.5305 27.4674 84.1077 27.5272 83.638 27.5272Z" fill="white"/>
<path d="M91.0069 27.5272C90.5286 27.5272 90.0802 27.4589 89.6617 27.3224C89.2432 27.1773 88.876 26.9597 88.56 26.6695C88.244 26.3794 87.9963 26.0167 87.8169 25.5815C87.6376 25.1378 87.5479 24.6215 87.5479 24.0326V23.7766C87.5479 23.222 87.6376 22.7355 87.8169 22.3174C87.9963 21.8992 88.244 21.5494 88.56 21.2678C88.876 20.9861 89.2432 20.7728 89.6617 20.6277C90.0802 20.4827 90.5286 20.4101 91.0069 20.4101C91.4852 20.4101 91.9336 20.4827 92.3521 20.6277C92.7706 20.7728 93.1378 20.9861 93.4539 21.2678C93.7699 21.5494 94.0175 21.8992 94.1969 22.3174C94.3763 22.7355 94.4659 23.222 94.4659 23.7766V24.0326C94.4659 24.6129 94.3763 25.125 94.1969 25.5687C94.0175 26.0039 93.7699 26.3666 93.4539 26.6567C93.1378 26.9469 92.7706 27.1645 92.3521 27.3096C91.9336 27.4546 91.4852 27.5272 91.0069 27.5272ZM91.0069 25.8887C91.4681 25.8887 91.8226 25.7223 92.0702 25.3895C92.3179 25.0567 92.4418 24.6044 92.4418 24.0326V23.7766C92.4418 23.2646 92.3179 22.8507 92.0702 22.535C91.8226 22.2107 91.4681 22.0486 91.0069 22.0486C90.5457 22.0486 90.1913 22.2107 89.9436 22.535C89.6959 22.8507 89.5721 23.2646 89.5721 23.7766V24.0326C89.5721 24.6215 89.6959 25.078 89.9436 25.4023C90.1913 25.7266 90.5457 25.8887 91.0069 25.8887Z" fill="white"/>
<path d="M98.6886 27.5272C98.1847 27.5272 97.7192 27.4546 97.2922 27.3096C96.8737 27.1645 96.5107 26.9469 96.2033 26.6567C95.8958 26.3666 95.6566 26.0039 95.4858 25.5687C95.315 25.1335 95.2296 24.6215 95.2296 24.0326V23.7766C95.2296 23.239 95.3193 22.7611 95.4986 22.343C95.6865 21.9248 95.9342 21.575 96.2417 21.2934C96.5577 21.0032 96.9249 20.7856 97.3434 20.6405C97.7619 20.4869 98.2103 20.4101 98.6886 20.4101C99.2011 20.4101 99.6495 20.4784 100.034 20.6149C100.427 20.7515 100.755 20.9392 101.02 21.1782C101.285 21.4086 101.49 21.6816 101.635 21.9974C101.78 22.3131 101.866 22.6502 101.891 23.0086H99.8672C99.7989 22.7014 99.6708 22.4667 99.4829 22.3046C99.3036 22.1339 99.0388 22.0486 98.6886 22.0486C98.2701 22.0486 97.9242 22.1937 97.6509 22.4838C97.3861 22.7654 97.2538 23.1964 97.2538 23.7766V24.0326C97.2538 24.6641 97.3819 25.1292 97.6381 25.4279C97.9029 25.7266 98.253 25.8759 98.6886 25.8759C98.9875 25.8759 99.2395 25.7991 99.4445 25.6455C99.658 25.4834 99.7989 25.2444 99.8672 24.9287H101.891C101.866 25.3298 101.772 25.6924 101.61 26.0167C101.447 26.3325 101.225 26.6013 100.943 26.8231C100.67 27.045 100.341 27.22 99.9569 27.348C99.5811 27.4674 99.1584 27.5272 98.6886 27.5272Z" fill="white"/>
<path d="M102.855 20.5765H104.828V23.0982H107.416V20.5765H109.388V27.3608H107.416V24.7111H104.828V27.3608H102.855V20.5765Z" fill="white"/>
<path d="M112.788 27.5272C112.421 27.5272 112.092 27.4717 111.801 27.3608C111.52 27.2498 111.28 27.1005 111.084 26.9127C110.888 26.7165 110.738 26.4903 110.636 26.2343C110.533 25.9698 110.482 25.6839 110.482 25.3767C110.482 24.7025 110.687 24.1863 111.097 23.8278C111.515 23.4694 112.143 23.2902 112.98 23.2902H114.915V23.0086C114.915 22.599 114.816 22.3174 114.62 22.1638C114.423 22.0016 114.154 21.9206 113.813 21.9206C113.488 21.9206 113.249 21.9718 113.095 22.0742C112.942 22.1766 112.856 22.3387 112.839 22.5606H110.866C110.883 22.2534 110.96 21.9718 111.097 21.7158C111.233 21.4512 111.426 21.2251 111.673 21.0373C111.93 20.8411 112.241 20.6875 112.609 20.5765C112.976 20.4656 113.399 20.4101 113.877 20.4101C114.321 20.4101 114.727 20.4613 115.094 20.5637C115.47 20.6576 115.79 20.8155 116.055 21.0373C116.32 21.2507 116.525 21.5323 116.67 21.8822C116.815 22.2235 116.887 22.6417 116.887 23.1366V25.6327C116.887 25.9911 116.896 26.3069 116.913 26.5799C116.93 26.8445 116.956 27.1048 116.99 27.3608H115.12C115.102 27.2157 115.085 27.0877 115.068 26.9768C115.06 26.8658 115.055 26.7293 115.055 26.5671C114.851 26.8402 114.564 27.0706 114.197 27.2584C113.838 27.4376 113.369 27.5272 112.788 27.5272ZM113.428 26.1447C113.847 26.1447 114.197 26.0253 114.479 25.7863C114.769 25.5474 114.915 25.2188 114.915 24.8007V24.5191H113.364C113.074 24.5191 112.856 24.5959 112.711 24.7495C112.574 24.9031 112.506 25.0823 112.506 25.2871C112.506 25.5346 112.574 25.7394 112.711 25.9015C112.856 26.0637 113.095 26.1447 113.428 26.1447Z" fill="white"/>
<path d="M121.372 27.5272C120.877 27.5272 120.416 27.4461 119.989 27.284C119.57 27.1133 119.207 26.8658 118.9 26.5415C118.592 26.2087 118.349 25.7991 118.17 25.3127C117.999 24.8177 117.913 24.2417 117.913 23.5846V23.3286C117.913 22.5691 117.973 21.8907 118.093 21.2934C118.221 20.696 118.426 20.1882 118.708 19.7701C118.998 19.3434 119.374 19.0149 119.835 18.7845C120.296 18.5455 120.868 18.409 121.552 18.3749C121.817 18.3663 122.081 18.3578 122.346 18.3493C122.619 18.3407 122.876 18.3279 123.115 18.3109C123.362 18.2938 123.589 18.2682 123.794 18.234C123.999 18.1999 124.174 18.1487 124.319 18.0804V19.7701C124.251 19.8128 124.152 19.8512 124.024 19.8853C123.905 19.9109 123.742 19.9365 123.537 19.9621C123.333 19.9877 123.085 20.009 122.794 20.0261C122.504 20.0432 122.154 20.056 121.744 20.0645C121.368 20.0645 121.044 20.1029 120.77 20.1797C120.506 20.2565 120.279 20.3803 120.091 20.5509C119.912 20.7131 119.771 20.9264 119.669 21.191C119.566 21.447 119.493 21.7584 119.451 22.1254C119.639 21.784 119.933 21.4982 120.335 21.2678C120.736 21.0373 121.274 20.9221 121.949 20.9221C122.367 20.9221 122.752 20.9861 123.102 21.1141C123.461 21.2336 123.768 21.4171 124.024 21.6646C124.281 21.9035 124.477 22.2107 124.614 22.5862C124.759 22.9531 124.831 23.3798 124.831 23.8662V24.1095C124.831 24.6471 124.742 25.1292 124.562 25.5559C124.383 25.9826 124.14 26.341 123.832 26.6311C123.525 26.9213 123.157 27.1432 122.73 27.2968C122.312 27.4504 121.859 27.5272 121.372 27.5272ZM121.372 25.8887C121.834 25.8887 122.188 25.7436 122.436 25.4535C122.683 25.1548 122.807 24.7665 122.807 24.2887V24.0198C122.807 23.5164 122.679 23.1281 122.423 22.855C122.167 22.5734 121.817 22.4326 121.372 22.4326C120.937 22.4326 120.587 22.5691 120.322 22.8422C120.066 23.1153 119.938 23.5078 119.938 24.0198V24.2375C119.938 24.7324 120.074 25.1335 120.348 25.4407C120.621 25.7394 120.962 25.8887 121.372 25.8887Z" fill="white"/>
<path d="M127.342 23.8662L125.241 20.5765H127.316L128.853 23.175H129.238V20.5765H131.211V23.175H131.595L133.222 20.5765H135.22L133.107 23.7254L135.349 27.3608H133.171L131.595 24.6343H131.211V27.3608H129.238V24.6343H128.841L127.201 27.3608H125.1L127.342 23.8662Z" fill="white"/>
<path d="M139.138 27.5272C138.643 27.5272 138.177 27.4589 137.741 27.3224C137.314 27.1773 136.943 26.9597 136.627 26.6695C136.311 26.3794 136.063 26.0167 135.884 25.5815C135.705 25.1378 135.615 24.6215 135.615 24.0326V23.7766C135.615 23.2134 135.7 22.7227 135.871 22.3046C136.05 21.8864 136.29 21.5366 136.588 21.255C136.896 20.9733 137.255 20.7643 137.665 20.6277C138.083 20.4827 138.532 20.4101 139.01 20.4101C140.129 20.4101 140.974 20.7003 141.546 21.2806C142.119 21.8523 142.405 22.6843 142.405 23.7766V24.4807H137.639C137.648 24.7452 137.695 24.9713 137.78 25.1591C137.865 25.3383 137.976 25.4876 138.113 25.6071C138.25 25.7266 138.403 25.8162 138.574 25.8759C138.754 25.9271 138.941 25.9527 139.138 25.9527C139.514 25.9527 139.808 25.8972 140.022 25.7863C140.244 25.6668 140.389 25.509 140.457 25.3127H142.277C142.14 26.0551 141.803 26.6098 141.265 26.9768C140.726 27.3437 140.018 27.5272 139.138 27.5272ZM139.074 21.9718C138.894 21.9718 138.719 21.9931 138.549 22.0358C138.386 22.0784 138.237 22.151 138.1 22.2534C137.972 22.3473 137.865 22.471 137.78 22.6246C137.703 22.7782 137.66 22.9659 137.652 23.1878H140.47C140.47 22.9489 140.432 22.7526 140.355 22.599C140.278 22.4454 140.176 22.3217 140.047 22.2278C139.928 22.1339 139.783 22.0699 139.612 22.0358C139.441 21.9931 139.262 21.9718 139.074 21.9718Z" fill="white"/>
<path d="M143.428 20.5765H145.401V23.0982H147.988V20.5765H149.961V27.3608H147.988V24.7111H145.401V27.3608H143.428V20.5765Z" fill="white"/>
<path d="M151.247 20.5765H153.169V24.6727L156.051 20.5765H157.781V27.3608H155.859V23.2646L152.976 27.3608H151.247V20.5765Z" fill="white"/>
<path d="M162.333 27.5272C161.838 27.5272 161.372 27.4589 160.937 27.3224C160.51 27.1773 160.138 26.9597 159.822 26.6695C159.506 26.3794 159.258 26.0167 159.079 25.5815C158.9 25.1378 158.81 24.6215 158.81 24.0326V23.7766C158.81 23.2134 158.895 22.7227 159.066 22.3046C159.246 21.8864 159.485 21.5366 159.784 21.255C160.091 20.9733 160.45 20.7643 160.86 20.6277C161.278 20.4827 161.727 20.4101 162.205 20.4101C163.324 20.4101 164.169 20.7003 164.742 21.2806C165.314 21.8523 165.6 22.6843 165.6 23.7766V24.4807H160.834C160.843 24.7452 160.89 24.9713 160.975 25.1591C161.061 25.3383 161.172 25.4876 161.308 25.6071C161.445 25.7266 161.599 25.8162 161.769 25.8759C161.949 25.9271 162.137 25.9527 162.333 25.9527C162.709 25.9527 163.004 25.8972 163.217 25.7863C163.439 25.6668 163.584 25.509 163.653 25.3127H165.472C165.335 26.0551 164.998 26.6098 164.46 26.9768C163.922 27.3437 163.213 27.5272 162.333 27.5272ZM162.269 21.9718C162.09 21.9718 161.915 21.9931 161.744 22.0358C161.582 22.0784 161.432 22.151 161.295 22.2534C161.167 22.3473 161.061 22.471 160.975 22.6246C160.898 22.7782 160.856 22.9659 160.847 23.1878H163.665C163.665 22.9489 163.627 22.7526 163.55 22.599C163.473 22.4454 163.371 22.3217 163.243 22.2278C163.123 22.1339 162.978 22.0699 162.807 22.0358C162.636 21.9931 162.457 21.9718 162.269 21.9718Z" fill="white"/>
</svg>
