<svg width="115" height="32" viewBox="0 0 115 32" fill="none" xmlns="http://www.w3.org/2000/svg">
<path d="M40.6777 22.9693H39.9293V20.5296L38.5221 22.9693H37.7188V19.4697H38.4672V21.9044L39.8793 19.4697H40.6777V22.9693Z" fill="#80858E"/>
<path d="M44.6491 22.9693H43.9006V21.5095H42.4536V22.9693H41.7051V19.4697H42.4536V20.8395H43.9006V19.4697H44.6491V22.9693Z" fill="#80858E"/>
<path d="M47.8877 23.0293H47.1393V22.6743C46.2461 22.6593 45.5176 22.1694 45.5176 21.2095C45.5176 20.2796 46.276 19.7597 47.1393 19.7447V19.3848H47.8877V19.7447C48.7909 19.7597 49.5094 20.2547 49.5094 21.2095C49.5094 22.1644 48.7111 22.6593 47.8877 22.6743V23.0293ZM46.316 21.2095C46.316 21.7944 46.7301 22.0444 47.1593 22.0594V20.3596C46.7202 20.3746 46.316 20.6196 46.316 21.2095ZM47.8677 22.0594C48.2669 22.0444 48.7111 21.7695 48.7111 21.2095C48.7111 20.5946 48.3169 20.3746 47.8677 20.3596V22.0594Z" fill="#80858E"/>
<path d="M51.1313 22.9693H50.3828V19.4697H51.5853C52.4635 19.4697 53.0174 19.8347 53.0174 20.6396C53.0174 21.4295 52.4486 21.8744 51.5156 21.8744H51.1313V22.9693ZM51.1164 21.2145H51.5254C51.9746 21.2145 52.244 21.0395 52.244 20.6696C52.244 20.2796 51.9895 20.1296 51.5305 20.1296H51.1164V21.2145Z" fill="#80858E"/>
<path d="M55.6565 22.1994H54.3143L54.0647 22.9693H53.3262L54.5188 19.4697H55.4919L56.6695 22.9693H55.906L55.6565 22.1994ZM54.5188 21.5445H55.4519L54.9878 20.0746L54.5188 21.5445Z" fill="#80858E"/>
<path d="M59.9332 22.8292C59.7536 22.9242 59.4992 23.0292 58.9901 23.0292C57.9224 23.0292 57.2188 22.4143 57.2188 21.2644C57.2188 20.0596 57.9224 19.4097 59.065 19.4097C59.4442 19.4097 59.7586 19.4897 59.9432 19.5746L59.7786 20.2046C59.5689 20.1346 59.3294 20.0996 59.1697 20.0996C58.4812 20.0996 58.0121 20.4445 58.0121 21.2194C58.0121 21.9593 58.4613 22.3343 59.1648 22.3343C59.3245 22.3343 59.5689 22.2893 59.7835 22.1993L59.9332 22.8292Z" fill="#80858E"/>
<path d="M62.3332 22.9693H61.5848V20.1596H60.5918V19.4697H63.3213V20.1596H62.3332V22.9693Z" fill="#80858E"/>
<path d="M64.8383 22.9693H64.0898V19.4697H65.2924C66.1707 19.4697 66.7245 19.8347 66.7245 20.6396C66.7245 21.4295 66.1556 21.8744 65.2225 21.8744H64.8383V22.9693ZM64.8233 21.2145H65.2326C65.6816 21.2145 65.9511 21.0395 65.9511 20.6696C65.9511 20.2796 65.6966 20.1296 65.2375 20.1296H64.8233V21.2145Z" fill="#80858E"/>
<path d="M68.1564 22.4943C68.336 22.3843 68.4856 22.2544 68.5705 22.0994L68.5854 22.0644L67.2881 19.4697H68.1564L68.9797 21.3295L69.6483 19.4697H70.4217L69.319 22.1944C69.1544 22.5993 68.8699 22.9143 68.5756 23.0742L68.1564 22.4943Z" fill="#80858E"/>
<path d="M71.8686 20.9345H72.0482L73.1211 19.4697H73.9892L72.7568 20.9995C73.161 21.1245 73.3356 21.7544 74.0442 22.9693H73.1859C72.4723 21.7344 72.5672 21.5245 72.138 21.5245H71.8686V22.9693H71.1201V19.4697H71.8686V20.9345Z" fill="#80858E"/>
<path d="M76.2249 22.9693H75.4763V20.1596H74.4834V19.4697H77.2128V20.1596H76.2249V22.9693Z" fill="#80858E"/>
<path d="M78.7248 22.4943C78.9044 22.3843 79.054 22.2544 79.1389 22.0994L79.1538 22.0644L77.8564 19.4697H78.7248L79.548 21.3295L80.2167 19.4697H80.9901L79.8874 22.1944C79.7227 22.5993 79.4383 22.9143 79.1439 23.0742L78.7248 22.4943Z" fill="#80858E"/>
<path d="M82.437 22.9693H81.6885V19.4697H82.8911C83.7693 19.4697 84.3231 19.8347 84.3231 20.6396C84.3231 21.4295 83.7543 21.8744 82.8211 21.8744H82.437V22.9693ZM82.4219 21.2145H82.8312C83.2802 21.2145 83.5497 21.0395 83.5497 20.6696C83.5497 20.2796 83.2952 20.1296 82.8361 20.1296H82.4219V21.2145Z" fill="#80858E"/>
<path d="M88.1061 22.9693H87.3576V21.5095H85.9106V22.9693H85.1621V19.4697H85.9106V20.8395H87.3576V19.4697H88.1061V22.9693Z" fill="#80858E"/>
<path d="M89.1338 22.9693V19.4697H89.8823V20.6146H90.2665C91.1597 20.6146 91.6686 20.9645 91.6686 21.7644C91.6686 22.5293 91.1297 22.9693 90.2116 22.9693H89.1338ZM89.8823 22.3094H90.1617C90.6857 22.3094 90.8952 22.0944 90.8952 21.7694C90.8952 21.4195 90.6657 21.2745 90.1617 21.2745H89.8823V22.3094ZM92.8063 22.9693H92.0578V19.4697H92.8063V22.9693Z" fill="#80858E"/>
<path d="M96.0745 22.9693H93.834V19.4697H96.0745V20.1296H94.5825V20.8745H95.8948V21.4895H94.5825V22.3094H96.0745V22.9693Z" fill="#80858E"/>
<path d="M33.568 3.32422H32.832V28.6116H33.568V3.32422Z" fill="#80858E"/>
<path d="M40.0192 15.9698H37.7188V5.21436H41.4145C42.0894 5.21436 42.6976 5.2862 43.2396 5.42948C43.7815 5.57302 44.244 5.79057 44.6274 6.08258C45.0108 6.37438 45.3046 6.74846 45.5092 7.20424C45.7137 7.66002 45.8161 8.1953 45.8161 8.8098C45.8161 9.41432 45.7111 9.95192 45.5016 10.4232C45.292 10.8944 44.988 11.2912 44.5891 11.6139C44.1903 11.9364 43.7047 12.1823 43.1323 12.3515C42.5596 12.5204 41.9155 12.6049 41.2 12.6049H40.0192V15.9698ZM39.9731 10.5767H41.2307C41.9257 10.5767 42.4676 10.4411 42.8562 10.1695C43.2446 9.89839 43.4389 9.47572 43.4389 8.90194C43.4389 8.29764 43.2496 7.87017 42.8714 7.61909C42.4932 7.36823 41.9514 7.2426 41.2459 7.2426H39.9731V10.5767Z" fill="#80858E"/>
<path d="M52.7784 16.1544C52.0014 16.1544 51.2933 16.0337 50.6545 15.7933C50.0155 15.5527 49.4661 15.1967 49.0059 14.7254C48.5458 14.2544 48.1904 13.673 47.94 12.9814C47.6894 12.29 47.5645 11.4936 47.5645 10.5923C47.5645 9.69102 47.6946 8.89446 47.9555 8.20307C48.2161 7.51168 48.5764 6.93049 49.0365 6.45922C49.4967 5.98802 50.0412 5.63195 50.6699 5.39131C51.2985 5.15068 51.981 5.03027 52.7172 5.03027C53.5453 5.03027 54.2838 5.15833 54.9332 5.41441C55.5822 5.67051 56.1293 6.03658 56.574 6.51277C57.0189 6.98927 57.3586 7.57308 57.594 8.26447C57.829 8.95587 57.9465 9.73175 57.9465 10.5923C57.9465 11.5448 57.8164 12.3721 57.5555 13.0737C57.295 13.7753 56.9318 14.3542 56.4668 14.8099C56.0015 15.2657 55.4547 15.6039 54.8259 15.8241C54.1971 16.0442 53.5146 16.1544 52.7784 16.1544ZM52.8552 14.1261C53.2436 14.1261 53.6013 14.0545 53.9287 13.911C54.2557 13.7677 54.5368 13.55 54.7722 13.2579C55.0071 12.9661 55.1886 12.6 55.3166 12.1596C55.4442 11.7193 55.5083 11.1969 55.5083 10.5923C55.5083 9.37331 55.2525 8.47962 54.7415 7.91105C54.2301 7.34271 53.5555 7.0583 52.7172 7.0583C52.3387 7.0583 51.9834 7.13014 51.6513 7.27344C51.3189 7.41694 51.0303 7.63448 50.7849 7.92652C50.5395 8.21834 50.3478 8.58718 50.2098 9.03271C50.0718 9.47825 50.0027 9.9983 50.0027 10.5923C50.0027 11.1969 50.0768 11.7193 50.225 12.1596C50.3733 12.6 50.5752 12.9661 50.8308 13.2579C51.0864 13.55 51.3881 13.7677 51.7356 13.911C52.0832 14.0545 52.4566 14.1261 52.8552 14.1261Z" fill="#80858E"/>
<path d="M68.2519 15.544C68.1084 15.6154 67.9528 15.6866 67.7841 15.7576C67.6155 15.8291 67.416 15.895 67.186 15.956C66.9561 16.017 66.69 16.0653 66.3888 16.101C66.0871 16.1363 65.7419 16.1544 65.3533 16.1544C64.5352 16.1544 63.7915 16.0363 63.122 15.8009C62.4526 15.5653 61.8801 15.2197 61.4045 14.7638C60.929 14.3082 60.5612 13.742 60.3004 13.0661C60.0396 12.39 59.9092 11.6117 59.9092 10.7306C59.9092 9.80862 60.0396 8.99198 60.3004 8.27992C60.5612 7.56803 60.9368 6.9714 61.4276 6.48993C61.9184 6.00849 62.5139 5.64477 63.2142 5.39896C63.9145 5.1531 64.7043 5.03027 65.5837 5.03027C66.1662 5.03027 66.69 5.08168 67.1556 5.18382C67.6207 5.28635 67.9963 5.40418 68.2827 5.53721L67.7763 7.47314C67.449 7.36053 67.1169 7.27866 66.7796 7.22728C66.4423 7.1763 66.151 7.15061 65.9054 7.15061C65.3738 7.15061 64.8908 7.21726 64.4565 7.35073C64.0219 7.48426 63.6484 7.6922 63.3368 7.97441C63.0246 8.25688 62.7821 8.61613 62.6082 9.05234C62.4343 9.48896 62.3478 10.0046 62.3478 10.6C62.3478 11.7395 62.6669 12.5968 63.3064 13.1717C63.9449 13.7466 64.8065 14.0341 65.8902 14.0341C66.1358 14.0341 66.4318 14.0009 66.7796 13.9341C67.1273 13.8676 67.4646 13.7627 67.792 13.6192L68.2519 15.544Z" fill="#80858E"/>
<path d="M76.9927 13.6191H72.8674L72.1006 15.9698H69.8311L73.4964 5.21436H76.4867L80.106 15.9698H77.7595L76.9927 13.6191ZM73.4964 11.5909H76.3641L74.9379 7.07356L73.4964 11.5909Z" fill="#80858E"/>
<path d="M85.3358 15.9698H83.0354V7.33469H79.9834V5.21436H88.3722V7.33469H85.3358V15.9698Z" fill="#80858E"/>
<path d="M94.6595 16.1544C93.8827 16.1544 93.1746 16.0337 92.5356 15.7933C91.8966 15.5527 91.3471 15.1967 90.8872 14.7254C90.4269 14.2544 90.0717 13.673 89.8213 12.9814C89.5705 12.29 89.4453 11.4936 89.4453 10.5923C89.4453 9.69102 89.5757 8.89446 89.8365 8.20307C90.0974 7.51168 90.4577 6.93049 90.9176 6.45922C91.3775 5.98802 91.9222 5.63195 92.5508 5.39131C93.1798 5.15068 93.8623 5.03027 94.5982 5.03027C95.4263 5.03027 96.1649 5.15833 96.8143 5.41441C97.4633 5.67051 98.0106 6.03658 98.4553 6.51277C98.9 6.98927 99.2395 7.57308 99.4751 8.26447C99.7103 8.95587 99.8276 9.73175 99.8276 10.5923C99.8276 11.5448 99.6973 12.3721 99.4369 13.0737C99.176 13.7753 98.813 14.3542 98.3479 14.8099C97.8823 15.2657 97.3355 15.6039 96.7069 15.8241C96.0779 16.0442 95.3959 16.1544 94.6595 16.1544ZM94.7364 14.1261C95.1247 14.1261 95.4824 14.0545 95.8097 13.911C96.1371 13.7677 96.4179 13.55 96.653 13.2579C96.8882 12.9661 97.0695 12.6 97.1977 12.1596C97.3255 11.7193 97.3894 11.1969 97.3894 10.5923C97.3894 9.37331 97.1338 8.47962 96.6226 7.91105C96.1114 7.34271 95.4363 7.0583 94.5982 7.0583C94.22 7.0583 93.8644 7.13014 93.5323 7.27344C93.2002 7.41694 92.9111 7.63448 92.666 7.92652C92.4204 8.21834 92.2287 8.58718 92.0909 9.03271C91.9526 9.47825 91.8839 9.9983 91.8839 10.5923C91.8839 11.1969 91.9578 11.7193 92.1061 12.1596C92.2543 12.6 92.4565 12.9661 92.7121 13.2579C92.9672 13.55 93.2689 13.7677 93.6167 13.911C93.964 14.0545 94.3374 14.1261 94.7364 14.1261Z" fill="#80858E"/>
<path d="M114.183 15.9698H111.867L111.284 8.82504L109.076 15.9698H106.883L104.705 8.85598L104.122 15.9698H101.807L102.88 5.21436H105.625L108.048 13.327L110.441 5.21436H113.094L114.183 15.9698Z" fill="#80858E"/>
<path d="M17.3529 15.9704C17.3506 17.6381 16.0011 18.9877 14.3384 18.986C12.6754 18.9846 11.3275 17.6319 11.3281 15.9654C11.33 14.2978 12.6812 12.9482 14.3437 12.9497C16.0065 12.9514 17.3536 14.304 17.3529 15.9704Z" fill="#80858E"/>
<path d="M14.3694 1.6001C12.1956 1.6001 10.1348 2.0832 8.28809 2.94777C10.7447 2.69391 13.2961 3.75405 15.1801 5.65924C15.1808 5.65899 15.1814 5.65869 15.182 5.65842C16.1239 6.5905 16.9498 7.79913 17.6515 9.25371C21.6478 9.97057 24.3619 7.9818 25.4315 6.80493C25.4317 6.80466 25.4319 6.80441 25.4321 6.80411C22.7978 3.62508 18.82 1.6001 14.3694 1.6001Z" fill="#80858E"/>
<path d="M5.71872 4.49699C3.74936 5.98541 2.17546 7.96955 1.18262 10.2639C2.37621 10.5581 5.94989 11.7214 7.58947 16.1487C8.08263 15.988 9.14567 15.3684 9.88323 12.9761C10.7882 10.0455 12.436 7.2173 14.5735 5.96522C12.2175 3.67782 8.64088 2.67731 5.71872 4.49699Z" fill="#80858E"/>
<path d="M26.8078 23.1529C27.8947 21.27 28.5068 19.2434 28.6815 17.2114C27.673 19.4663 25.4795 21.1463 22.8878 21.8257C22.8877 21.8263 22.8877 21.827 22.8876 21.8277C21.6096 22.1776 20.1502 22.2887 18.5399 22.1691C15.921 25.2724 16.2859 28.6177 16.7702 30.1326C16.7703 30.1329 16.7704 30.1332 16.7705 30.1336C20.8403 29.4412 24.5825 27.0081 26.8078 23.1529Z" fill="#80858E"/>
<path d="M28.6248 14.2116C28.3206 11.7615 27.3896 9.40611 25.8995 7.39893C25.048 8.28569 22.254 10.7997 17.6008 10.0062C17.4934 10.5137 17.4984 11.7443 19.2009 13.5793C21.2859 15.8286 22.9107 18.67 22.926 21.1475C26.0846 20.2505 28.7392 17.6526 28.6248 14.2116Z" fill="#80858E"/>
<path d="M1.92648 23.151C3.01333 25.0339 4.46205 26.5775 6.13399 27.7448C4.68589 25.7438 4.3281 23.0037 5.03568 20.4191C5.03513 20.4188 5.03459 20.4183 5.03405 20.4179C5.37007 19.1359 6.00364 17.8162 6.91227 16.4812C5.53478 12.6611 2.45575 11.3045 0.902 10.9665C0.901648 10.9664 0.901302 10.9664 0.90095 10.9663C-0.534451 14.8377 -0.298863 19.2958 1.92648 23.151Z" fill="#80858E"/>
<path d="M8.75963 29.1952C11.033 30.1569 13.5379 30.5281 16.0209 30.241C15.6789 29.06 14.8992 25.3828 17.9128 21.7489C17.5271 21.4021 16.459 20.7911 14.0189 21.3483C11.029 22.0298 7.75633 22.0165 5.60352 20.791C4.80094 23.9755 5.72298 27.5739 8.75963 29.1952Z" fill="#80858E"/>
<path d="M38.4672 28.6114H37.7188V25.1118H38.9213C39.7995 25.1118 40.3534 25.4767 40.3534 26.2817C40.3534 27.0716 39.7845 27.5164 38.8515 27.5164H38.4672V28.6114ZM38.4523 26.8565H38.8614C39.3106 26.8565 39.5799 26.6816 39.5799 26.3117C39.5799 25.9217 39.3255 25.7717 38.8664 25.7717H38.4523V26.8565Z" fill="#80858E"/>
<path d="M43.4318 28.6114H41.1914V25.1118H43.4318V25.7717H41.9399V26.5166H43.2522V27.1315H41.9399V27.9514H43.4318V28.6114Z" fill="#80858E"/>
<path d="M48.4272 28.6114H44.3555V25.1118H45.1039V27.9364H46.0171V25.1118H46.7655V27.9364H47.6787V25.1118H48.4272V28.6114Z" fill="#80858E"/>
<path d="M51.6956 28.6114H49.4551V25.1118H51.6956V25.7717H50.2036V26.5166H51.5159V27.1315H50.2036V27.9514H51.6956V28.6114Z" fill="#80858E"/>
<path d="M55.5622 28.6114H54.8137V27.1515H53.3666V28.6114H52.6182V25.1118H53.3666V26.4816H54.8137V25.1118H55.5622V28.6114Z" fill="#80858E"/>
<path d="M59.5488 28.6114H58.8004V26.1717L57.3932 28.6114H56.5898V25.1118H57.3383V27.5464L58.7504 25.1118H59.5488V28.6114Z" fill="#80858E"/>
<path d="M60.5075 26.2617C60.5075 25.4667 61.0165 25.1118 61.8947 25.1118H63.1122V28.6114H62.3638V27.4015H62.0494C61.5903 27.4015 61.6403 27.6064 61.1862 28.6114H60.3379C60.7421 27.6715 60.822 27.3365 61.0963 27.2015C60.7471 27.0565 60.5075 26.7716 60.5075 26.2617ZM62.3737 26.7816V25.7717H61.8697C61.5105 25.7717 61.281 25.9367 61.281 26.2917C61.281 26.6366 61.5454 26.7816 61.9397 26.7816H62.3737Z" fill="#80858E"/>
</svg>
