<svg width="115" height="32" viewBox="0 0 115 32" fill="none" xmlns="http://www.w3.org/2000/svg">
<path d="M41.2772 23.0014H40.5288V20.5617L39.1216 23.0014H38.3182V19.5019H39.0667V21.9365L40.4788 19.5019H41.2772V23.0014Z" fill="#1D222A"/>
<path d="M45.2493 23.0014H44.5008V21.5416H43.0538V23.0014H42.3053V19.5019H43.0538V20.8717H44.5008V19.5019H45.2493V23.0014Z" fill="#1D222A"/>
<path d="M48.4874 23.0614H47.7391V22.7065C46.8458 22.6915 46.1173 22.2015 46.1173 21.2417C46.1173 20.3118 46.8758 19.7919 47.7391 19.7769V19.4169H48.4874V19.7769C49.3906 19.7919 50.1092 20.2868 50.1092 21.2417C50.1092 22.1965 49.3108 22.6915 48.4874 22.7065V23.0614ZM46.9157 21.2417C46.9157 21.8266 47.3298 22.0766 47.759 22.0916V20.3918C47.3199 20.4068 46.9157 20.6517 46.9157 21.2417ZM48.4675 22.0916C48.8667 22.0766 49.3108 21.8016 49.3108 21.2417C49.3108 20.6267 48.9167 20.4068 48.4675 20.3918V22.0916Z" fill="#1D222A"/>
<path d="M51.7309 23.0014H50.9824V19.5019H52.1849C53.0631 19.5019 53.6171 19.8668 53.6171 20.6717C53.6171 21.4616 53.0482 21.9065 52.1152 21.9065H51.7309V23.0014ZM51.716 21.2466H52.125C52.5742 21.2466 52.8436 21.0717 52.8436 20.7017C52.8436 20.3118 52.5892 20.1618 52.1301 20.1618H51.716V21.2466Z" fill="#1D222A"/>
<path d="M56.2565 22.2315H54.9142L54.6646 23.0014H53.9261L55.1188 19.5019H56.0918L57.2694 23.0014H56.5059L56.2565 22.2315ZM55.1188 21.5766H56.0519L55.5878 20.1068L55.1188 21.5766Z" fill="#1D222A"/>
<path d="M60.5331 22.8613C60.3535 22.9563 60.0991 23.0613 59.59 23.0613C58.5223 23.0613 57.8187 22.4464 57.8187 21.2965C57.8187 20.0917 58.5223 19.4418 59.6649 19.4418C60.0441 19.4418 60.3585 19.5218 60.5431 19.6068L60.3785 20.2367C60.1688 20.1667 59.9293 20.1317 59.7696 20.1317C59.0811 20.1317 58.612 20.4766 58.612 21.2515C58.612 21.9914 59.0612 22.3664 59.7647 22.3664C59.9244 22.3664 60.1688 22.3214 60.3834 22.2314L60.5331 22.8613Z" fill="#1D222A"/>
<path d="M62.933 23.0014H62.1846V20.1918H61.1916V19.5019H63.9211V20.1918H62.933V23.0014Z" fill="#1D222A"/>
<path d="M65.4377 23.0014H64.6892V19.5019H65.8918C66.77 19.5019 67.3238 19.8668 67.3238 20.6717C67.3238 21.4616 66.755 21.9065 65.8219 21.9065H65.4377V23.0014ZM65.4227 21.2466H65.8319C66.2809 21.2466 66.5505 21.0717 66.5505 20.7017C66.5505 20.3118 66.2959 20.1618 65.8369 20.1618H65.4227V21.2466Z" fill="#1D222A"/>
<path d="M68.7561 22.5265C68.9358 22.4165 69.0854 22.2865 69.1703 22.1315L69.1852 22.0965L67.8878 19.5019H68.7561L69.5794 21.3616L70.2481 19.5019H71.0214L69.9187 22.2265C69.7541 22.6315 69.4696 22.9464 69.1753 23.1064L68.7561 22.5265Z" fill="#1D222A"/>
<path d="M72.4686 20.9667H72.6482L73.7211 19.5019H74.5892L73.3568 21.0317C73.761 21.1566 73.9356 21.7866 74.6441 23.0014H73.7859C73.0723 21.7666 73.1671 21.5566 72.738 21.5566H72.4686V23.0014H71.7201V19.5019H72.4686V20.9667Z" fill="#1D222A"/>
<path d="M76.8244 23.0014H76.0758V20.1918H75.0829V19.5019H77.8123V20.1918H76.8244V23.0014Z" fill="#1D222A"/>
<path d="M79.3245 22.5265C79.5041 22.4165 79.6537 22.2865 79.7386 22.1315L79.7535 22.0965L78.4562 19.5019H79.3245L80.1478 21.3616L80.8164 19.5019H81.5898L80.4871 22.2265C80.3225 22.6315 80.038 22.9464 79.7437 23.1064L79.3245 22.5265Z" fill="#1D222A"/>
<path d="M83.037 23.0014H82.2885V19.5019H83.4911C84.3693 19.5019 84.9231 19.8668 84.9231 20.6717C84.9231 21.4616 84.3543 21.9065 83.4212 21.9065H83.037V23.0014ZM83.022 21.2466H83.4312C83.8802 21.2466 84.1498 21.0717 84.1498 20.7017C84.1498 20.3118 83.8952 20.1618 83.4362 20.1618H83.022V21.2466Z" fill="#1D222A"/>
<path d="M88.7052 23.0014H87.9568V21.5416H86.5097V23.0014H85.7612V19.5019H86.5097V20.8717H87.9568V19.5019H88.7052V23.0014Z" fill="#1D222A"/>
<path d="M89.7332 23.0014V19.5019H90.4817V20.6467H90.866C91.7591 20.6467 92.2681 20.9967 92.2681 21.7966C92.2681 22.5615 91.7292 23.0014 90.811 23.0014H89.7332ZM90.4817 22.3415H90.7611C91.2851 22.3415 91.4946 22.1265 91.4946 21.8016C91.4946 21.4516 91.2651 21.3066 90.7611 21.3066H90.4817V22.3415ZM93.4057 23.0014H92.6573V19.5019H93.4057V23.0014Z" fill="#1D222A"/>
<path d="M96.674 23.0014H94.4335V19.5019H96.674V20.1618H95.1819V20.9067H96.4943V21.5216H95.1819V22.3415H96.674V23.0014Z" fill="#1D222A"/>
<path d="M40.6186 16.0023H38.3182V5.24686H42.014C42.6889 5.24686 43.2971 5.31871 43.8391 5.46199C44.381 5.60552 44.8435 5.82306 45.2269 6.11508C45.6103 6.40688 45.9041 6.78097 46.1087 7.23675C46.3132 7.69254 46.4156 8.22779 46.4156 8.8423C46.4156 9.44682 46.3106 9.98445 46.1011 10.4557C45.8915 10.9269 45.5875 11.3237 45.1886 11.6464C44.7898 11.9689 44.3042 12.2148 43.7318 12.3839C43.1591 12.5529 42.515 12.6374 41.7995 12.6374H40.6186V16.0023ZM40.5726 10.6092H41.8302C42.5252 10.6092 43.0671 10.4735 43.4557 10.202C43.8441 9.93088 44.0384 9.50822 44.0384 8.93444C44.0384 8.33014 43.8491 7.90267 43.4709 7.65158C43.0927 7.40073 42.5509 7.2751 41.8454 7.2751H40.5726V10.6092Z" fill="#1D222A"/>
<path d="M53.3777 16.1866C52.6007 16.1866 51.8926 16.066 51.2537 15.8256C50.6148 15.585 50.0653 15.2289 49.6052 14.7577C49.145 14.2867 48.7897 13.7052 48.5393 13.0136C48.2887 12.3222 48.1637 11.5259 48.1637 10.6246C48.1637 9.72327 48.2939 8.92672 48.5547 8.23533C48.8153 7.54393 49.1757 6.96273 49.6358 6.49147C50.0959 6.02026 50.6404 5.6642 51.2692 5.42358C51.8978 5.18294 52.5803 5.06253 53.3164 5.06253C54.1445 5.06253 54.883 5.19058 55.5325 5.44665C56.1815 5.70278 56.7286 6.06883 57.1733 6.54503C57.6182 7.02151 57.9579 7.60533 58.1933 8.29673C58.4283 8.98812 58.5458 9.76399 58.5458 10.6246C58.5458 11.577 58.4157 12.4043 58.1548 13.106C57.8942 13.8076 57.531 14.3864 57.0661 14.8422C56.6008 15.2979 56.0539 15.6361 55.4251 15.8563C54.7963 16.0764 54.1139 16.1866 53.3777 16.1866ZM53.4544 14.1584C53.8428 14.1584 54.2006 14.0868 54.5279 13.9433C54.855 13.8 55.1361 13.5822 55.3714 13.2902C55.6064 12.9984 55.7879 12.6323 55.9159 12.1918C56.0435 11.7515 56.1076 11.2291 56.1076 10.6246C56.1076 9.40556 55.8518 8.51188 55.3408 7.9433C54.8293 7.37496 54.1547 7.09056 53.3164 7.09056C52.938 7.09056 52.5826 7.1624 52.2505 7.30569C51.9182 7.4492 51.6295 7.66674 51.3842 7.95877C51.1388 8.25058 50.9471 8.61943 50.8091 9.06496C50.671 9.51049 50.602 10.0305 50.602 10.6246C50.602 11.2291 50.6761 11.7515 50.8243 12.1918C50.9725 12.6323 51.1744 12.9984 51.43 13.2902C51.6856 13.5822 51.9873 13.8 52.3348 13.9433C52.6824 14.0868 53.0558 14.1584 53.4544 14.1584Z" fill="#1D222A"/>
<path d="M68.8516 15.5762C68.7082 15.6477 68.5525 15.7188 68.3839 15.7899C68.2152 15.8613 68.0157 15.9273 67.7858 15.9883C67.5558 16.0492 67.2898 16.0976 66.9885 16.1333C66.6868 16.1685 66.3417 16.1866 65.9531 16.1866C65.135 16.1866 64.3912 16.0686 63.7218 15.8332C63.0523 15.5976 62.4798 15.252 62.0043 14.796C61.5287 14.3404 61.161 13.7743 60.9001 13.0984C60.6393 12.4222 60.5089 11.6439 60.5089 10.7629C60.5089 9.84088 60.6393 9.02424 60.9001 8.31216C61.161 7.6003 61.5365 7.00367 62.0273 6.5222C62.5181 6.04074 63.1136 5.67704 63.8139 5.43122C64.5142 5.18536 65.3041 5.06253 66.1835 5.06253C66.766 5.06253 67.2898 5.11394 67.7553 5.21607C68.2205 5.31861 68.596 5.43644 68.8825 5.56946L68.3761 7.5054C68.0488 7.39279 67.7166 7.31091 67.3793 7.25954C67.042 7.20855 66.7508 7.18285 66.5051 7.18285C65.9735 7.18285 65.4905 7.2495 65.0563 7.38298C64.6216 7.5165 64.2482 7.72446 63.9365 8.00666C63.6244 8.28912 63.3818 8.64838 63.2079 9.08458C63.0341 9.52121 62.9475 10.0368 62.9475 10.6322C62.9475 11.7718 63.2666 12.6291 63.9061 13.204C64.5446 13.7788 65.4062 14.0663 66.4899 14.0663C66.7355 14.0663 67.0315 14.0332 67.3793 13.9663C67.7271 13.8999 68.0644 13.795 68.3917 13.6514L68.8516 15.5762Z" fill="#1D222A"/>
<path d="M77.5923 13.6515H73.467L72.7002 16.0023H70.4307L74.096 5.24686H77.0863L80.7056 16.0023H78.3591L77.5923 13.6515ZM74.096 11.6234H76.9637L75.5375 7.10607L74.096 11.6234Z" fill="#1D222A"/>
<path d="M85.9356 16.0023H83.6351V7.36719H80.5831V5.24686H88.972V7.36719H85.9356V16.0023Z" fill="#1D222A"/>
<path d="M95.2594 16.1866C94.4826 16.1866 93.7744 16.066 93.1354 15.8256C92.4964 15.585 91.947 15.2289 91.4871 14.7577C91.0267 14.2867 90.6716 13.7052 90.4212 13.0136C90.1704 12.3222 90.0452 11.5259 90.0452 10.6246C90.0452 9.72327 90.1756 8.92672 90.4364 8.23533C90.6972 7.54393 91.0576 6.96273 91.5175 6.49147C91.9774 6.02026 92.5221 5.6642 93.1507 5.42358C93.7797 5.18294 94.4622 5.06253 95.1981 5.06253C96.0262 5.06253 96.7647 5.19058 97.4142 5.44665C98.0632 5.70278 98.6105 6.06883 99.0552 6.54503C99.4999 7.02151 99.8393 7.60533 100.075 8.29673C100.31 8.98812 100.428 9.76399 100.428 10.6246C100.428 11.577 100.297 12.4043 100.037 13.106C99.7759 13.8076 99.4129 14.3864 98.9478 14.8422C98.4822 15.2979 97.9354 15.6361 97.3068 15.8563C96.6778 16.0764 95.9958 16.1866 95.2594 16.1866ZM95.3363 14.1584C95.7245 14.1584 96.0823 14.0868 96.4096 13.9433C96.7369 13.8 97.0178 13.5822 97.2529 13.2902C97.4881 12.9984 97.6693 12.6323 97.7976 12.1918C97.9254 11.7515 97.9893 11.2291 97.9893 10.6246C97.9893 9.40556 97.7337 8.51188 97.2225 7.9433C96.7113 7.37496 96.0362 7.09056 95.1981 7.09056C94.8199 7.09056 94.4643 7.1624 94.1322 7.30569C93.8001 7.4492 93.511 7.66674 93.2659 7.95877C93.0202 8.25058 92.8285 8.61943 92.6907 9.06496C92.5525 9.51049 92.4838 10.0305 92.4838 10.6246C92.4838 11.2291 92.5577 11.7515 92.7059 12.1918C92.8542 12.6323 93.0563 12.9984 93.3119 13.2902C93.5671 13.5822 93.8688 13.8 94.2165 13.9433C94.5639 14.0868 94.9372 14.1584 95.3363 14.1584Z" fill="#1D222A"/>
<path d="M114.782 16.0023H112.467L111.884 8.85755L109.676 16.0023H107.482L105.305 8.88847L104.722 16.0023H102.406L103.48 5.24686H106.225L108.648 13.3595L111.04 5.24686H113.693L114.782 16.0023Z" fill="#1D222A"/>
<path d="M17.1786 18.0246C16.0633 19.262 14.1589 19.3594 12.9237 18.2429C11.6881 17.1263 11.5891 15.2173 12.7022 13.9796C13.817 12.742 15.7227 12.6456 16.9579 13.7619C18.1931 14.8785 18.2917 16.787 17.1786 18.0246Z" fill="url(#paint0_radial_591_14862)"/>
<path d="M6.3152 4.52154C4.34415 6.01104 2.76901 7.99849 1.776 10.2973C2.96764 10.5915 6.53544 11.7549 8.17233 16.1828C8.66466 16.0221 9.72597 15.4023 10.4623 13.0098C11.4497 9.80653 13.3229 6.72555 15.752 5.69101C13.3297 3.2899 10.1381 2.72452 6.3152 4.52154Z" fill="url(#paint1_linear_591_14862)"/>
<path d="M25.9842 6.8377C25.9845 6.83743 25.9847 6.83715 25.9849 6.83688C23.3549 3.65743 19.3836 1.6322 14.9403 1.6322C11.7023 1.6322 8.71505 2.70769 6.31482 4.52155C11.622 2.02678 15.7122 4.08483 18.217 9.2868C22.2068 10.0037 24.9164 8.01473 25.9842 6.8377Z" fill="url(#paint2_linear_591_14862)"/>
<path d="M9.33313 29.2222C11.606 30.1878 14.1114 30.5609 16.5947 30.2732C16.2533 29.092 15.4748 25.4144 18.4835 21.78C18.0984 21.4332 17.0321 20.8221 14.596 21.3794C11.3337 22.1242 7.73424 22.0393 5.6255 20.4487C4.76137 23.7512 5.86849 26.8034 9.33313 29.2222Z" fill="url(#paint3_linear_591_14862)"/>
<path d="M1.50047 10.9961C1.50013 10.996 1.49978 10.996 1.49944 10.9959C0.0664058 14.8678 0.301605 19.3265 2.52329 23.1822C4.14228 25.9919 6.56546 28.0464 9.33332 29.2222C4.52348 25.8643 4.25714 21.286 7.50086 16.5115C6.12563 12.6909 3.05169 11.3342 1.50047 10.9961Z" fill="url(#paint4_linear_591_14862)"/>
<path d="M29.1732 14.2529C28.8714 11.7978 27.9412 9.43721 26.4508 7.42615C25.6006 8.31304 22.8113 10.8273 18.1657 10.0338C18.0585 10.5413 18.0635 11.7722 19.7632 13.6074C22.0381 16.0658 23.7644 19.2318 23.444 21.8569C26.7305 20.9555 28.8149 18.4687 29.1732 14.2529Z" fill="url(#paint5_linear_591_14862)"/>
<path d="M17.3367 30.1627C17.3368 30.163 17.3369 30.1634 17.337 30.1637C21.4001 29.4713 25.1361 27.0378 27.3578 23.1821C28.9768 20.3724 29.5409 17.2425 29.1732 14.2527C28.6759 20.1054 24.852 22.6257 19.1035 22.1982C16.4889 25.3018 16.8532 28.6476 17.3367 30.1627Z" fill="url(#paint6_linear_591_14862)"/>
<path d="M33.9416 3.42819H33.2245V28.5719H33.9416V3.42819Z" fill="#1D222A"/>
<path d="M39.0664 28.6437H38.3179V25.1442H39.5204C40.3986 25.1442 40.9526 25.5092 40.9526 26.314C40.9526 27.1039 40.3837 27.5489 39.4507 27.5489H39.0664V28.6437ZM39.0515 26.889H39.4606C39.9097 26.889 40.1791 26.714 40.1791 26.344C40.1791 25.9541 39.9247 25.8041 39.4656 25.8041H39.0515V26.889Z" fill="#1D222A"/>
<path d="M44.0314 28.6437H41.791V25.1442H44.0314V25.8041H42.5395V26.5491H43.8518V27.1639H42.5395V27.9838H44.0314V28.6437Z" fill="#1D222A"/>
<path d="M49.0263 28.6437H44.9546V25.1442H45.7031V27.9689H46.6163V25.1442H47.3646V27.9689H48.2778V25.1442H49.0263V28.6437Z" fill="#1D222A"/>
<path d="M52.2944 28.6437H50.054V25.1442H52.2944V25.8041H50.8024V26.5491H52.1148V27.1639H50.8024V27.9838H52.2944V28.6437Z" fill="#1D222A"/>
<path d="M56.1615 28.6437H55.4131V27.1839H53.966V28.6437H53.2175V25.1442H53.966V26.514H55.4131V25.1442H56.1615V28.6437Z" fill="#1D222A"/>
<path d="M60.1484 28.6437H59.4001V26.2041L57.9928 28.6437H57.1895V25.1442H57.938V27.5789L59.3501 25.1442H60.1484V28.6437Z" fill="#1D222A"/>
<path d="M61.1064 26.294C61.1064 25.4992 61.6154 25.1442 62.4936 25.1442H63.7111V28.6437H62.9626V27.4339H62.6482C62.1892 27.4339 62.2392 27.6389 61.785 28.6437H60.9368C61.341 27.7039 61.4208 27.369 61.6952 27.2339C61.3459 27.089 61.1064 26.804 61.1064 26.294ZM62.9726 26.814V25.8041H62.4686C62.1093 25.8041 61.8799 25.9691 61.8799 26.324C61.8799 26.669 62.1443 26.814 62.5386 26.814H62.9726Z" fill="#1D222A"/>
<defs>
<radialGradient id="paint0_radial_591_14862" cx="0" cy="0" r="1" gradientUnits="userSpaceOnUse" gradientTransform="translate(13.9737 14.3225) rotate(-0.0635496) scale(4.24006 4.24725)">
<stop stop-color="#6095CD"/>
<stop offset="1" stop-color="#202562"/>
</radialGradient>
<linearGradient id="paint1_linear_591_14862" x1="4.77141" y1="13.97" x2="11.9207" y2="2.982" gradientUnits="userSpaceOnUse">
<stop stop-color="#6095CD"/>
<stop offset="1" stop-color="#202562"/>
</linearGradient>
<linearGradient id="paint2_linear_591_14862" x1="7.6171" y1="1.29216" x2="25.339" y2="8.43864" gradientUnits="userSpaceOnUse">
<stop stop-color="#6095CD"/>
<stop offset="1" stop-color="#202562"/>
</linearGradient>
<linearGradient id="paint3_linear_591_14862" x1="18.2713" y1="25.8372" x2="5.19829" y2="25.1534" gradientUnits="userSpaceOnUse">
<stop stop-color="#6095CD"/>
<stop offset="1" stop-color="#202562"/>
</linearGradient>
<linearGradient id="paint4_linear_591_14862" x1="5.89091" y1="29.7069" x2="3.22208" y2="10.7534" gradientUnits="userSpaceOnUse">
<stop stop-color="#6095CD"/>
<stop offset="1" stop-color="#202562"/>
</linearGradient>
<linearGradient id="paint5_linear_591_14862" x1="21.7783" y1="8.18952" x2="27.7398" y2="19.8673" gradientUnits="userSpaceOnUse">
<stop stop-color="#6095CD"/>
<stop offset="1" stop-color="#202562"/>
</linearGradient>
<linearGradient id="paint6_linear_591_14862" x1="31.3137" y1="16.9977" x2="16.2377" y2="28.7539" gradientUnits="userSpaceOnUse">
<stop stop-color="#6095CD"/>
<stop offset="1" stop-color="#202562"/>
</linearGradient>
</defs>
</svg>
