<svg width="32" height="32" viewBox="0 0 32 32" fill="none" xmlns="http://www.w3.org/2000/svg">
<path d="M2 25C1.44772 25 1 25.4477 1 26C1 26.5523 1.44772 27 2 27H30C30.5523 27 31 26.5523 31 26C31 25.4477 30.5523 25 30 25H2Z" fill="#1D222A"/>
<path d="M2 15C1.44772 15 1 15.4477 1 16C1 16.5523 1.44772 17 2 17H30C30.5523 17 31 16.5523 31 16C31 15.4477 30.5523 15 30 15H2Z" fill="#1D222A"/>
<path d="M2 5C1.44772 5 1 5.44772 1 6C1 6.55228 1.44772 7 2 7H30C30.5523 7 31 6.55228 31 6C31 5.44772 30.5523 5 30 5H2Z" fill="#1D222A"/>
</svg>
