<svg width="48" height="48" viewBox="0 0 48 48" fill="none" xmlns="http://www.w3.org/2000/svg">
<rect width="48" height="48" rx="24" fill="white"/>
<path d="M18.1748 9.56267C17.8641 9.10607 17.9824 8.48405 18.439 8.17335C18.6112 8.05617 18.8069 8.00001 19.0006 8C19.3207 7.9998 19.6352 8.15296 19.8289 8.43753L29.2702 22.3124C29.2802 22.3271 29.2901 22.3419 29.2998 22.3568L29.6524 22.875C30.1144 23.5539 30.1144 24.4463 29.6524 25.1252L29.2998 25.6434C29.2901 25.6583 29.2802 25.6731 29.2702 25.6878L19.8289 39.5627C19.6352 39.8472 19.3207 40.0004 19.0006 40.0002C18.8069 40.0002 18.6112 39.944 18.439 39.8268C17.9824 39.5161 17.8641 38.8941 18.1748 38.4375L27.6336 24.5369C27.842 24.2095 27.842 23.7907 27.6336 23.4633L18.1748 9.56267Z" fill="#80858E"/>
</svg>
