<svg width="32" height="32" viewBox="0 0 32 32" fill="none" xmlns="http://www.w3.org/2000/svg">
<rect width="32" height="32" rx="16" fill="white"/>
<g clip-path="url(#clip0_926_2355)">
<path d="M13.1623 10.0416C12.8633 9.57729 12.9973 8.95846 13.4616 8.65941C13.6293 8.55135 13.8173 8.49983 14.003 8.5C14.3313 8.5003 14.6528 8.66209 14.8438 8.95864L18.3328 14.3757C18.3345 14.3783 18.3362 14.3809 18.3378 14.3835L18.6815 14.9172C19.1063 15.5767 19.1063 16.4236 18.6815 17.0831L18.3378 17.6168C18.3361 17.6194 18.3345 17.622 18.3328 17.6246L14.8438 23.0416C14.7316 23.2157 14.5745 23.3434 14.3974 23.4192C14.1477 23.5261 13.8584 23.5298 13.5994 23.4152C13.5523 23.3944 13.5062 23.3696 13.4616 23.3408C12.9973 23.0418 12.8633 22.4229 13.1623 21.9586L16.6514 16.5416C16.6523 16.5401 16.6533 16.5386 16.6543 16.5371C16.8628 16.2095 16.8628 15.7908 16.6543 15.4632L13.1623 10.0416Z" fill="#80858E"/>
</g>
<defs>
<clipPath id="clip0_926_2355">
<rect width="6" height="16" fill="white" transform="translate(13 8)"/>
</clipPath>
</defs>
</svg>
