<svg width="13" height="13" viewBox="0 0 13 13" fill="none" xmlns="http://www.w3.org/2000/svg">
<g clip-path="url(#clip0_591_14815)">
<path d="M0.784736 6.12924L8.40927 3.04234C9.1619 2.72079 11.7143 1.69182 11.7143 1.69182C11.7143 1.69182 12.8924 1.24165 12.7942 2.33492C12.7615 2.7851 12.4997 4.3607 12.2379 6.06493L11.4198 11.1133C11.4198 11.1133 11.3544 11.8529 10.7981 11.9815C10.2418 12.1101 9.32552 11.5313 9.1619 11.4027C9.03101 11.3062 6.70765 9.85924 5.85685 9.15183C5.62779 8.95889 5.366 8.57303 5.88957 8.12286C7.06761 7.06174 8.47471 5.74337 9.32552 4.90734C9.7182 4.52148 10.1109 3.62113 8.47471 4.71441L3.86073 7.76915C3.86073 7.76915 3.33715 8.0907 2.35545 7.80131C1.37376 7.51191 0.228439 7.12605 0.228439 7.12605C0.228439 7.12605 -0.55692 6.64372 0.784736 6.12924Z" fill="white"/>
</g>
<defs>
<clipPath id="clip0_591_14815">
<rect width="12.8" height="12.8" fill="white"/>
</clipPath>
</defs>
</svg>
